<svg xmlns="http://www.w3.org/2000/svg" xmlns:xlink="http://www.w3.org/1999/xlink" width="80" height="77" viewBox="0 0 80 77">
  <defs>
    <filter id="Rectangle_25" x="0" y="0" width="80" height="77" filterUnits="userSpaceOnUse">
      <feOffset dy="3" input="SourceAlpha"/>
      <feGaussianBlur stdDeviation="3" result="blur"/>
      <feFlood flood-opacity="0.161"/>
      <feComposite operator="in" in2="blur"/>
      <feComposite in="SourceGraphic"/>
    </filter>
  </defs>
  <g id="storesvg" transform="translate(-39 -396)">
    <g transform="matrix(1, 0, 0, 1, 39, 396)" filter="url(#Rectangle_25)">
      <rect id="Rectangle_25-2" data-name="Rectangle 25" width="62" height="59" rx="8" transform="translate(9 6)" fill="#fff"/>
    </g>
    <g id="online" transform="translate(67 420)">
      <path id="Path_1" data-name="Path 1" d="M52.223,177.676v12.529a1.541,1.541,0,0,1-1.553,1.528H33.585a1.541,1.541,0,0,1-1.553-1.528c0-11.845,0-9.626,0-12.529Z" transform="translate(-30.502 -168.863)" fill="#d6f4fc"/>
      <path id="Path_2" data-name="Path 2" d="M52.224,177.676v2.894a1.152,1.152,0,0,1-1.147,1.148h-17.9a1.151,1.151,0,0,1-1.146-1.148c0-.835,0-.249,0-2.894Z" transform="translate(-30.504 -169.045)" fill="#bdeffc"/>
      <path id="Path_3" data-name="Path 3" d="M166.77,298.584v6.829h-7.736v-6.829a1.528,1.528,0,0,1,1.528-1.528h4.68A1.528,1.528,0,0,1,166.77,298.584Z" transform="translate(-151.277 -282.542)" fill="#e8f8fc"/>
      <path id="Path_4" data-name="Path 4" d="M30.5,16.156a2.811,2.811,0,0,1-5.621,0,2.811,2.811,0,0,1-5.621,0,2.811,2.811,0,0,1-5.621,0,2.811,2.811,0,0,1-5.621,0,22.049,22.049,0,0,1,.017-2.369c.023-.108-.138.276,2.3-5.27a.776.776,0,0,1,.711-.46H27.471a.776.776,0,0,1,.711.46c2.44,5.55,2.277,5.161,2.3,5.27A22,22,0,0,1,30.5,16.156Z" transform="translate(-7.633 -7.674)" fill="#ff6d7a"/>
      <path id="Path_5" data-name="Path 5" d="M30.517,130.425a2.811,2.811,0,0,1-5.621,0,2.811,2.811,0,0,1-5.621,0,2.811,2.811,0,0,1-5.621,0,2.811,2.811,0,0,1-5.621,0v-2.211a.756.756,0,0,1,.017-.159H30.5A22,22,0,0,1,30.517,130.425Z" transform="translate(-7.65 -121.83)" fill="#fe4f60"/>
      <path id="Path_6" data-name="Path 6" d="M27.642,10.1a18.791,18.791,0,0,0-13.928,3.172,2.64,2.64,0,0,1-1.572.517H8.384c.023-.108-.138.276,2.3-5.27a.778.778,0,0,1,.712-.46H27.851a.777.777,0,0,1,.712.46l.108.246A.966.966,0,0,1,27.642,10.1Z" transform="translate(-7.984 -7.673)" fill="#ff7c87"/>
      <path id="Path_7" data-name="Path 7" d="M22.086,13.184v8.187a1.94,1.94,0,0,1-1.937,1.938H3.1a1.94,1.94,0,0,1-1.937-1.938V13.184a.387.387,0,1,1,.775,0v8.187A1.164,1.164,0,0,0,3.1,22.533H7.314v-6.54a1.94,1.94,0,0,1,1.937-1.938H14a1.94,1.94,0,0,1,1.937,1.938v4.99a.387.387,0,1,1-.775,0v-4.99A1.164,1.164,0,0,0,14,14.831H9.251a1.164,1.164,0,0,0-1.162,1.163v6.54h3.148v-6.1a.387.387,0,1,1,.775,0v6.1h8.136a1.164,1.164,0,0,0,1.162-1.163V13.184a.387.387,0,1,1,.775,0ZM2.519,6.257a.388.388,0,0,0,.387.388c21.081,0,20.035.038,20.189-.08a.385.385,0,0,0,.148-.253c.022-.156.161.227-2.546-6.021a.387.387,0,0,0-.356-.233H2.907a.387.387,0,0,0-.355.233L.033,6.1A13.164,13.164,0,0,0,0,8.661a3.195,3.195,0,0,0,6,1.523,3.2,3.2,0,0,0,5.619,0,3.2,3.2,0,0,0,5.618,0A3.2,3.2,0,0,0,23.248,8.66a.387.387,0,1,0-.775,0,2.422,2.422,0,1,1-4.843,0,.387.387,0,1,0-.775,0,2.422,2.422,0,1,1-4.843,0,.387.387,0,1,0-.775,0,2.422,2.422,0,1,1-4.843-.019.387.387,0,1,0-.775,0A2.422,2.422,0,1,1,.776,8.66V6.337L3.161.831H20.088L22.27,5.869H2.907a.387.387,0,0,0-.387.388Z" transform="translate(0.001 -0.056)"/>
    </g>
  </g>
</svg>
